HIERARCHY
ROOT Hips
{
	OFFSET 0.00000 0.00000 0.00000
	CHANNELS 6 Xposition Yposition Zposition Zrotation Yrotation Xrotation 
	JOINT LHipJoint
	{
		OFFSET 0 0 0
		CHANNELS 3 Zrotation Yrotation Xrotation
		JOINT LeftHip
		{
			OFFSET 2.36090 -1.39315 1.24752
			CHANNELS 3 Zrotation Yrotation Xrotation
			JOINT LeftKnee
			{
				OFFSET 2.06810 -5.68207 0.00000
				CHANNELS 3 Zrotation Yrotation Xrotation
				JOINT LeftAnkle
				{
					OFFSET 2.46631 -6.77613 0.00000
					CHANNELS 3 Zrotation Yrotation Xrotation
					JOINT LeftToe
					{
						OFFSET 0.26031 -0.71520 1.99545
						CHANNELS 3 Zrotation Yrotation Xrotation
						End Site
						{
							OFFSET 0.00000 -0.00000 1.05957
						}
					}
				}
			}
		}
	}
	JOINT RHipJoint
	{
		OFFSET 0 0 0
		CHANNELS 3 Zrotation Yrotation Xrotation
		JOINT RightHip
		{
			OFFSET -2.25243 -1.39315 1.24752
			CHANNELS 3 Zrotation Yrotation Xrotation
			JOINT RightKnee
			{
				OFFSET -2.17343 -5.97145 0.00000
				CHANNELS 3 Zrotation Yrotation Xrotation
				JOINT RightAnkle
				{
					OFFSET -2.52372 -6.93386 0.00000
					CHANNELS 3 Zrotation Yrotation Xrotation
					JOINT RightToe
					{
						OFFSET -0.22538 -0.61923 2.11447
						CHANNELS 3 Zrotation Yrotation Xrotation
						End Site
						{
							OFFSET -0.00000 -0.00000 1.10506
						}
					}
				}
			}
		}
	}
	JOINT lowerback
	{
		OFFSET 0 0 0
		CHANNELS 3 Zrotation Yrotation Xrotation
		JOINT Chest
		{
			OFFSET 0.01594 2.13103 0.08007
			CHANNELS 3 Zrotation Yrotation Xrotation
			JOINT Chest2
			{
				OFFSET 0.01393 2.09723 0.18338
				CHANNELS 3 Zrotation Yrotation Xrotation
				JOINT lowerneck
				{
					OFFSET 0 0 0
					CHANNELS 3 Zrotation Yrotation Xrotation
					JOINT Neck
					{
						OFFSET 0.05351 1.38915 0.32494
						CHANNELS 3 Zrotation Yrotation Xrotation
						JOINT Head
						{
							OFFSET 0.00711 1.45992 -0.21666
							CHANNELS 3 Zrotation Yrotation Xrotation
							End Site
							{
								OFFSET -0.00433 1.47702 -0.11056
							}
						}
					}
				}
				JOINT LeftCollar
				{
					OFFSET 0 0 0
					CHANNELS 3 Zrotation Yrotation Xrotation
					JOINT LeftShoulder
					{
						OFFSET 2.87198 0.92249 0.11132
CHANNELS 3 Zrotation Xrotation Yrotation
						JOINT LeftElbow
						{
OFFSET 0 -5.527310 0.000000
CHANNELS 3 Zrotation Xrotation Yrotation
							JOINT LeftWrist
							{
OFFSET 0 -3.110590 0.000000
CHANNELS 3 Zrotation Xrotation Yrotation
								JOINT lhand
								{
									OFFSET 0 0 0
CHANNELS 3 Zrotation Xrotation Yrotation
									JOINT LFingers
									{
OFFSET 0 -0.419630 0.000000
CHANNELS 3 Zrotation Xrotation Yrotation
										End Site
										{
OFFSET 0 -0.338310 0.000000
										}
									}
								}
								JOINT LThumb
								{
OFFSET 0 0.000000 0.000000
CHANNELS 3 Zrotation Xrotation Yrotation
									End Site
									{
OFFSET 0 -0.343480 0.343480
									}
								}
							}
						}
					}
				}
				JOINT RightCollar
				{
					OFFSET 0 0 0
					CHANNELS 3 Zrotation Yrotation Xrotation
					JOINT RightShoulder
					{
						OFFSET -2.94710 0.68072 0.32187
CHANNELS 3 Zrotation Xrotation Yrotation
						JOINT RightElbow
						{
OFFSET 0 -5.253960 -0.000000
CHANNELS 3 Zrotation Xrotation Yrotation
							JOINT RightWrist
							{
OFFSET 0 -3.105670 0.000000
CHANNELS 3 Zrotation Xrotation Yrotation
								JOINT rhand
								{
									OFFSET 0 0 0
CHANNELS 3 Zrotation Xrotation Yrotation
									JOINT RFingers
									{
OFFSET 0 -0.498680 0.000000
CHANNELS 3 Zrotation Xrotation Yrotation
										End Site
										{
OFFSET 0 -0.402040 0.000000
										}
									}
								}
								JOINT RThumb
								{
OFFSET 0 0.000000 0.000000
CHANNELS 3 Zrotation Xrotation Yrotation
									End Site
									{
OFFSET 0 -0.408180 0.408180
									}
								}
							}
						}
					}
				}
			}
		}
	}
}
MOTION
Frames: 6
Frame Time: 0.008333333333333333
6.840087 15.819205 0.066141 0.372328 -8.933043 18.923420 0.000000 0.000000 0.000000 -25.206933 -21.957641 -25.450354 1.449354 7.610069 21.535919 0.187465 0.450233 -8.352811 0.222593 3.036739 8.381028 0.000000 0.000000 0.000000 15.411384 24.383169 -46.547744 -29.198369 -17.836605 117.864297 -3.433131 -27.500225 36.269402 -3.513118 -11.482704 33.925620 -14.696461 1.741414 -15.275609 -5.548881 4.516132 -6.063232 2.995439 2.385576 1.304078 1.301339 -4.314789 -22.126512 13.743966 -12.165935 31.906298 3.198716 -2.977761 16.174386 0.000000 0.000000 0.000000 16.522336 2.014551 -23.347827 21.409491 -32.303225 6.267367 41.298420 -35.707490 30.770902 0.000000 0.000000 0.000000 -7.125000 0.000000 0.000000 5.498408 -8.261571 6.258361 0.000000 0.000000 0.000000 -6.788307 9.330954 28.356657 -31.410952 -42.072503 -12.344357 -1.705785 -10.249399 13.082661 0.000000 0.000000 0.000000 7.125000 0.000000 0.000000 22.724002 41.885801 1.852100
6.860360 15.904283 0.136949 -0.955770 -8.527591 19.653762 0.000000 0.000000 0.000000 -23.664451 -22.235230 -25.197390 1.323804 7.286555 20.567093 0.165746 0.645757 -7.952313 0.230264 3.088680 8.525676 0.000000 0.000000 0.000000 9.133136 28.908535 -43.980649 -29.328918 -17.770375 118.291183 -3.452287 -29.416854 36.979221 -4.430658 -12.708283 38.292658 -13.087158 1.608525 -15.939215 -4.643413 4.202490 -6.112057 3.089628 2.201556 1.728583 0.337310 -5.349293 -22.016877 14.225070 -13.437269 31.269351 3.269115 -3.611912 16.088064 0.000000 0.000000 0.000000 15.385839 2.429783 -23.231948 20.782848 -31.573987 5.935817 41.807328 -36.398052 31.220375 0.000000 0.000000 0.000000 -7.125000 0.000000 0.000000 5.653261 -8.966904 6.494556 0.000000 0.000000 0.000000 -7.338779 10.036758 28.936319 -30.463114 -41.287002 -11.714037 -1.210041 -9.009499 12.666741 0.000000 0.000000 0.000000 7.125000 0.000000 0.000000 22.994250 41.454470 2.137528
6.895012 15.979842 0.215926 -2.131178 -7.185855 20.433994 0.000000 0.000000 0.000000 -22.369621 -22.369569 -25.061010 1.191168 6.925706 19.495515 0.150400 -0.060585 -7.302662 0.231979 3.099830 8.556912 0.000000 0.000000 0.000000 1.196751 32.948220 -43.537032 -28.864057 -18.000910 116.777726 1.135937 -33.272745 17.705205 -4.650417 -12.978931 39.289715 -11.490528 1.227997 -16.590323 -3.608660 3.525707 -6.223610 3.246960 1.848217 2.105442 -0.797817 -6.438142 -21.426858 14.743232 -14.700620 30.585773 3.388738 -4.286389 15.910210 0.000000 0.000000 0.000000 14.153430 2.746355 -23.917140 19.878773 -30.495953 5.469731 42.648161 -37.733229 31.870694 0.000000 0.000000 0.000000 -7.125000 0.000000 0.000000 5.925131 -10.037421 6.900855 0.000000 0.000000 0.000000 -7.953120 10.650678 29.002379 -29.553005 -40.507140 -11.118138 -1.717240 -7.322673 12.744431 0.000000 0.000000 0.000000 7.125000 0.000000 0.000000 22.596017 41.574913 2.024938
6.932661 16.020271 0.297507 -3.165718 -5.274766 20.661818 0.000000 0.000000 0.000000 -21.397240 -22.256319 -25.101774 1.189491 6.920965 19.481329 0.152800 -1.559984 -7.001931 0.181486 2.743728 7.566151 0.000000 0.000000 0.000000 -5.958507 35.479538 -43.346363 -26.938221 -18.804125 110.682816 4.054802 -33.498973 -7.128017 -4.932177 -13.306850 40.528472 -10.074927 0.729736 -16.780810 -2.460855 2.652363 -6.091268 3.552999 1.394191 2.494301 -2.074899 -7.462892 -21.242487 15.444068 -15.905542 29.869849 3.611426 -4.905507 15.878063 0.000000 0.000000 0.000000 12.790183 2.433543 -24.731608 18.924564 -29.324882 4.993913 41.584831 -37.167621 31.157111 0.000000 0.000000 0.000000 -7.125000 0.000000 0.000000 5.550155 -8.806964 6.362323 0.000000 0.000000 0.000000 -8.599119 11.049527 28.402951 -29.159997 -40.162420 -10.863705 -2.078218 -5.695577 12.478737 0.000000 0.000000 0.000000 7.125000 0.000000 0.000000 22.201986 41.363723 2.108263
6.963458 16.032217 0.364125 -3.897030 -3.236228 20.896551 0.000000 0.000000 0.000000 -20.714686 -21.926889 -25.874069 1.274728 7.155465 20.176815 0.139924 -3.631140 -6.735236 0.083952 1.868388 5.142128 0.000000 0.000000 0.000000 -10.641159 33.825526 -45.257169 -23.592619 -19.687604 100.556867 2.632237 -30.989035 -28.352028 -3.770330 -11.848283 35.197565 -9.247423 0.233181 -16.606742 -1.481528 1.819863 -6.043987 3.984521 0.982772 2.563240 -3.385780 -8.362178 -20.906099 16.471641 -16.906570 28.647480 3.996438 -5.437408 15.629375 0.000000 0.000000 0.000000 10.574129 1.505363 -22.110739 18.106150 -28.292823 4.599441 39.761995 -36.119076 31.288755 0.000000 0.000000 0.000000 -7.125000 0.000000 0.000000 4.526785 -8.243595 5.144020 0.000000 0.000000 0.000000 -9.023283 11.287991 27.516979 -28.972002 -39.995824 -10.742771 -1.951096 -4.756433 12.063371 0.000000 0.000000 0.000000 7.125000 0.000000 0.000000 22.168460 40.967418 2.335086
6.974087 15.997114 0.394966 -3.815398 -2.481416 20.745679 0.000000 0.000000 0.000000 -21.104794 -21.026635 -26.709120 1.430182 7.561849 21.391020 0.127040 -5.316643 -6.862119 0.023614 0.991708 2.726148 0.000000 0.000000 0.000000 -13.676976 31.595612 -48.644353 -19.284945 -19.987143 87.908968 0.685497 -27.699716 -35.174658 -2.267776 -9.401807 27.061389 -9.552586 0.098510 -15.611703 -1.094197 1.573150 -5.896657 4.502199 0.880941 2.199888 -3.989282 -8.990907 -21.003303 17.244347 -17.628812 27.331215 4.190230 -5.784377 15.320657 0.000000 0.000000 0.000000 9.486212 0.717301 -21.182527 17.477366 -27.482792 4.305346 41.128283 -37.626174 33.121446 0.000000 0.000000 0.000000 -7.125000 0.000000 0.000000 4.764764 -10.792813 5.590230 0.000000 0.000000 0.000000 -9.128097 11.046511 27.044472 -28.943389 -39.970329 -10.724328 -1.478470 -4.179909 11.673517 0.000000 0.000000 0.000000 7.125000 0.000000 0.000000 22.432465 40.563616 2.604343
